<svg fill="none" viewBox="0 0 1000 240" width="100%" xmlns="http://www.w3.org/2000/svg">
  <defs>
    <linearGradient id="sky-bg" x1="0%" y1="0%" x2="100%" y2="100%">
      <stop offset="0%" stop-color="#0c1017" />
      <stop offset="100%" stop-color="#06080c" />
    </linearGradient>
    <linearGradient id="maroon-edge" x1="0%" y1="0%" x2="100%" y2="0%">
      <stop offset="0%" stop-color="#500000" stop-opacity="0" />
      <stop offset="50%" stop-color="#8a0c1a" />
      <stop offset="100%" stop-color="#500000" stop-opacity="0" />
    </linearGradient>
    <filter id="glow-maroon" x="-30%" y="-30%" width="160%" height="160%">
      <feGaussianBlur stdDeviation="16" result="blur" />
      <feComposite in="SourceGraphic" in2="blur" operator="over" />
    </filter>
    <filter id="glow-cyan" x="-30%" y="-30%" width="160%" height="160%">
      <feGaussianBlur stdDeviation="8" result="blur" />
      <feComposite in="SourceGraphic" in2="blur" operator="over" />
    </filter>
    <pattern id="grid-bg" width="30" height="30" patternUnits="userSpaceOnUse">
      <path d="M 30 0 L 0 0 0 30" fill="none" stroke="#1e293b" stroke-width="0.7" stroke-opacity="0.25" />
    </pattern>
  </defs>

  <style>
    .sans { font-family: -apple-system, BlinkMacSystemFont, 'Inter', 'Segoe UI', system-ui, sans-serif; }
    .mono { font-family: 'JetBrains Mono', 'SF Mono', ui-monospace, monospace; }
  </style>

  <!-- Container Base -->
  <rect width="1000" height="240" rx="14" fill="url(#sky-bg)" stroke="#1e293b" stroke-width="1.2" />
  <rect width="1000" height="240" rx="14" fill="url(#grid-bg)" />
  <line x1="40" y1="239" x2="960" y2="239" stroke="url(#maroon-edge)" stroke-width="2" />

  <!-- Left Identity Block -->
  <g transform="translate(45, 34)">
    <rect width="335" height="22" rx="4" fill="#090d13" stroke="#334155" stroke-width="0.8" />
    <rect width="4" height="22" rx="1" fill="#500000" />
    <text x="14" y="15" fill="#fca5a5" font-size="10" font-weight="700" class="mono">TEXAS A&amp;M // CS ('29) · 3.87 GPA · DEAN'S LIST</text>

    <text x="0" y="66" fill="#ffffff" font-size="34" font-weight="900" class="sans" letter-spacing="-0.8">JONATHAN KALSKY</text>
    <text x="0" y="90" fill="#94a3b8" font-size="13" class="sans">
      Software Engineering <tspan fill="#500000">·</tspan> Systems <tspan fill="#500000">·</tspan> AI &amp; Compute Infrastructure
    </text>

    <g transform="translate(0, 112)">
      <rect width="430" height="30" rx="5" fill="#070a0f" stroke="#1e293b" stroke-width="0.8" />
      <circle cx="15" cy="15" r="3.5" fill="#500000" />
      <circle cx="15" cy="15" r="1.5" fill="#ff4d6d" />
      <text x="28" y="19" fill="#cbd5e1" font-size="10.5" class="mono">
        CURRENT: <tspan fill="#ffffff" font-weight="700">Growth Specialist (Part-Time)</tspan>, Quali
      </text>
    </g>

    <g transform="translate(0, 152)">
      <rect width="210" height="24" rx="4" fill="#090d14" stroke="#1e293b" stroke-width="0.8" />
      <text x="12" y="16" fill="#38bdf8" font-size="9.5" font-weight="700" class="mono">CISCO STACK AUTOMATION</text>

      <rect x="220" y="0" width="210" height="24" rx="4" fill="#090d14" stroke="#1e293b" stroke-width="0.8" />
      <text x="232" y="16" fill="#e2e8f0" font-size="9.5" font-weight="700" class="mono">HACKATHON AWARDS</text>
    </g>
  </g>

  <!-- Right Visual Zone -->
  <g id="jk-vision"><ellipse cx="740" cy="115" rx="135" ry="85" fill="#500000" opacity="0.32" filter="url(#glow-maroon)"/>
    <g transform="translate(580, 180)">
      <polygon points="160,0 320,24 160,48 0,24" fill="#0b0f17" stroke="#334155" stroke-width="1.2" />
      <polygon points="160,6 300,24 160,42 20,24" fill="#06090e" stroke="#500000" stroke-width="0.8" stroke-dasharray="4,4" />
      <line x1="0" y1="24" x2="160" y2="48" stroke="#700010" stroke-width="1.8" />
      <line x1="160" y1="48" x2="320" y2="24" stroke="#700010" stroke-width="1.8" />
    </g>
    <polygon points="690,40 690,56 697,63 697,47" fill="#3a0006" stroke="#090d14" stroke-width="0.6"/><polygon points="690,56 630,56 637,63 697,63" fill="#3a0006" stroke="#090d14" stroke-width="0.6"/><polygon points="630,40 690,40 690,56 630,56" fill="#72000f" stroke="#ffffff" stroke-width="1.5" stroke-linejoin="miter"/><polygon points="690,56 690,145 697,152 697,63" fill="#2d0005" stroke="#090d14" stroke-width="0.6"/><polygon points="690,145 666,145 673,152 697,152" fill="#2d0005" stroke="#090d14" stroke-width="0.6"/><polygon points="666,56 690,56 690,145 666,145" fill="#5a000c" stroke="#ffffff" stroke-width="1.5" stroke-linejoin="miter"/><polygon points="690,145 690,165 697,172 697,152" fill="#3a0006" stroke="#090d14" stroke-width="0.6"/><polygon points="690,165 620,165 627,172 697,172" fill="#3a0006" stroke="#090d14" stroke-width="0.6"/><polygon points="620,145 690,145 690,165 620,165" fill="#72000f" stroke="#ffffff" stroke-width="1.5" stroke-linejoin="miter"/><polygon points="642,125 642,145 649,152 649,132" fill="#2d0005" stroke="#090d14" stroke-width="0.6"/><polygon points="642,145 620,145 627,152 649,152" fill="#2d0005" stroke="#090d14" stroke-width="0.6"/><polygon points="620,125 642,125 642,145 620,145" fill="#5a000c" stroke="#ffffff" stroke-width="1.5" stroke-linejoin="miter"/><polygon points="740,40 740,165 747,172 747,47" fill="#0c121a" stroke="#090d14" stroke-width="0.6"/><polygon points="740,165 716,165 723,172 747,172" fill="#0c121a" stroke="#090d14" stroke-width="0.6"/><polygon points="716,40 740,40 740,165 716,165" fill="#151d2a" stroke="#38bdf8" stroke-width="1.5" stroke-linejoin="miter"/><polygon points="814,40 740,125 747,132 821,47" fill="#0f172a" stroke="#090d14" stroke-width="0.6"/><polygon points="740,105 790,40 814,40 740,125" fill="#1e293b" stroke="#38bdf8" stroke-width="1.5" stroke-linejoin="miter"/><polygon points="814,165 790,165 797,172 821,172" fill="#0c121a" stroke="#090d14" stroke-width="0.6"/><polygon points="740,95 814,165 790,165 740,115" fill="#151d2a" stroke="#38bdf8" stroke-width="1.5" stroke-linejoin="miter"/><line x1="690" y1="105" x2="716" y2="105" stroke="#ffffff" stroke-width="2" stroke-dasharray="2,2"/><circle cx="690" cy="105" r="2.5" fill="#ff4d6d"/><circle cx="716" cy="105" r="2.5" fill="#38bdf8"/>
    <g class="mono" font-size="7.5" fill="#94a3b8">
      <text x="590" y="24" fill="#38bdf8">INITIALS // JONATHAN KALSKY [3D_PRISM]</text>
      <text x="890" y="24" text-anchor="end" fill="#fca5a5">INTERLOCK: ACTIVE</text>
      <text x="590" y="222" fill="#64748b">CHASSIS: TITANIUM · MAROON LASER</text>
      <text x="890" y="222" text-anchor="end" fill="#38bdf8">TAMU CS '29</text>
    </g>
    </g>
</svg>